<svg xmlns="http://www.w3.org/2000/svg" version="1.1" xmlns:xlink="http://www.w3.org/1999/xlink" xmlns:svgjs="http://svgjs.dev/svgjs" width="1000" height="1000"><g clip-path="url(#SvgjsClipPath1062)"><rect width="1000" height="1000" fill="#ffffff"></rect><g transform="matrix(1.0215664018161181,0,0,1.0215664018161181,49.99999999999994,50.51078320090801)"><svg xmlns="http://www.w3.org/2000/svg" version="1.1" xmlns:xlink="http://www.w3.org/1999/xlink" xmlns:svgjs="http://svgjs.dev/svgjs" width="881" height="880"><svg xmlns="http://www.w3.org/2000/svg" width="881" height="880" viewBox="0 0 881 880" version="1.1">
	<path d="M 415.356 1.070 C 356.474 4.277, 296.567 20.159, 244.018 46.491 C 118.918 109.179, 30.550 227.620, 7.129 364 C 2.134 393.087, 1.499 401.757, 1.526 440.500 C 1.554 481.880, 2.733 494.853, 9.523 528.500 C 26.072 610.509, 66.441 686.524, 125.488 746.862 C 161.339 783.497, 199.262 811.271, 243.619 833.380 C 348.588 885.697, 468.580 894.136, 580 857.035 C 722.425 809.611, 831.545 691.051, 867.444 544.725 C 876.057 509.622, 879.351 481.261, 879.436 441.500 C 879.514 404.959, 877.718 385.267, 871.414 353.550 C 849.912 245.365, 786.675 147.193, 697.263 83.188 C 627.382 33.165, 549.054 5.758, 462.500 1.045 C 441.751 -0.085, 436.508 -0.082, 415.356 1.070 M 416.137 30.050 C 258.043 39.830, 120.610 138.089, 60.245 284.500 C 46.918 316.823, 37.170 354.175, 32.319 391.500 C 29.494 413.245, 29.726 469.538, 32.733 491.500 C 39.292 539.419, 51.228 579.103, 71.531 620.500 C 111.398 701.786, 176.297 767.115, 257.612 807.815 C 354.087 856.103, 468.685 863.993, 571 829.391 C 630.016 809.433, 681.561 777.790, 726.375 734.009 C 744.769 716.039, 756.389 702.874, 770.013 684.566 C 813.512 626.111, 839.874 559.034, 848.643 484.500 C 851.133 463.333, 851.124 416.365, 848.625 395.500 C 839.018 315.254, 809.601 244.462, 760.324 183 C 711.514 122.121, 644.823 75.598, 571 50.930 C 520.885 34.183, 466.927 26.908, 416.137 30.050 M 277 280.118 C 266.885 281.275, 253.556 285.196, 244.751 289.604 C 216.763 303.616, 199.842 328.177, 194.440 362.629 C 192.250 376.596, 191.554 439.062, 192.485 538.250 L 193.242 619 242.621 619 L 292 619 292 507.710 C 292 388.284, 291.969 389.065, 296.993 382.009 C 302.718 373.969, 314.929 376.223, 318.213 385.926 C 319.123 388.616, 319.503 417.876, 319.751 504.250 L 320.079 619 369.040 619 L 418 619 418.016 507.750 C 418.032 390.771, 418.091 389.088, 422.438 382.455 C 427.696 374.430, 441.168 375.821, 444.158 384.698 C 445.162 387.679, 445.507 413.385, 445.752 503.750 L 446.064 619 495.032 619 L 544 619 544 496.551 C 544 363.738, 543.912 361.272, 538.495 342.581 C 530.666 315.565, 516.210 297.819, 493.622 287.497 C 473.643 278.368, 444.812 276.772, 421.564 283.510 C 402.132 289.141, 386.939 300.438, 374.008 318.873 C 371.644 322.243, 369.363 325, 368.938 325 C 368.514 325, 365.713 321.512, 362.714 317.250 C 347.310 295.357, 326.561 282.898, 300.789 280.067 C 289.979 278.879, 287.783 278.884, 277 280.118 M 632.870 322.013 C 607.633 325.982, 586.754 343.326, 579.410 366.422 C 568.079 402.054, 587.181 437.233, 623 446.697 C 631.168 448.855, 653.002 449.114, 661 447.148 C 664.025 446.404, 670.325 443.978, 675 441.756 C 681.752 438.547, 685.049 436.152, 691.034 430.108 C 703.279 417.742, 709.015 403.675, 708.985 386.090 C 708.959 371.136, 704.765 359.056, 695.344 346.802 C 681.411 328.680, 655.598 318.438, 632.870 322.013 M 597 541 L 597 619 642.500 619 L 688 619 688 541 L 688 463 642.500 463 L 597 463 597 541" stroke="none" fill="#003866" fill-rule="evenodd"></path>
</svg></svg></g></g><defs><clipPath id="SvgjsClipPath1062"><rect width="1000" height="1000" x="0" y="0" rx="350" ry="350"></rect></clipPath></defs></svg>